<?xml version="1.0" encoding="utf-8"?>
<!-- Generator: Adobe Illustrator 22.1.0, SVG Export Plug-In . SVG Version: 6.00 Build 0)  -->
<svg version="1.1" id="Layer_1" xmlns="http://www.w3.org/2000/svg" xmlns:xlink="http://www.w3.org/1999/xlink" x="0px" y="0px"
	 viewBox="0 0 2680 2916" style="enable-background:new 0 0 2680 2916;" xml:space="preserve">
<style type="text/css">
	.st0{fill:#EC0928;}
	.st1{fill:#FFFFFF;}
</style>
<g>
	<rect x="0.5" y="3.5" class="st0" width="2679" height="2915"/>
	<path d="M2679,4v2914H1V4H2679 M2680,3H0v2916h2680V3L2680,3z"/>
</g>
<path class="st1" d="M1929.1,757.7L332,463.8l840.5,2114.9l1171.1-1426.8L1929.1,757.7z M1903.4,887.2l244.3,232.2l-668.2,121
	L1903.4,887.2z M1334.4,1216.2L630.1,632.1l1151.1,211.8L1334.4,1216.2z M1284.2,1319.5l-114.8,949.4L550.2,710.7L1284.2,1319.5z
	 M1390.5,1369.9l739.9-134l-848.7,1034L1390.5,1369.9z"/>
</svg>
